<svg width="28" height="28" viewBox="0 0 28 28" fill="none" xmlns="http://www.w3.org/2000/svg">
<path d="M14 17.5C15.933 17.5 17.5 15.933 17.5 14C17.5 12.067 15.933 10.5 14 10.5C12.067 10.5 10.5 12.067 10.5 14C10.5 15.933 12.067 17.5 14 17.5Z" stroke="white" stroke-width="2" stroke-linecap="round" stroke-linejoin="round"/>
<path d="M22.6337 17.5C22.4784 17.8518 22.432 18.2422 22.5007 18.6206C22.5693 18.9991 22.7497 19.3483 23.0187 19.6233L23.0887 19.6933C23.3056 19.91 23.4777 20.1673 23.5951 20.4506C23.7126 20.7339 23.773 21.0375 23.773 21.3441C23.773 21.6508 23.7126 21.9544 23.5951 22.2377C23.4777 22.5209 23.3056 22.7783 23.0887 22.995C22.872 23.2119 22.6146 23.384 22.3314 23.5014C22.0481 23.6189 21.7445 23.6793 21.4378 23.6793C21.1312 23.6793 20.8276 23.6189 20.5443 23.5014C20.261 23.384 20.0037 23.2119 19.787 22.995L19.717 22.925C19.442 22.656 19.0928 22.4756 18.7143 22.407C18.3359 22.3383 17.9455 22.3847 17.5937 22.54C17.2486 22.6878 16.9543 22.9334 16.747 23.2464C16.5397 23.5594 16.4285 23.9262 16.427 24.3016V24.5C16.427 25.1188 16.1812 25.7123 15.7436 26.1499C15.306 26.5875 14.7125 26.8333 14.0937 26.8333C13.4748 26.8333 12.8813 26.5875 12.4437 26.1499C12.0062 25.7123 11.7603 25.1188 11.7603 24.5V24.395C11.7513 24.0088 11.6263 23.6343 11.4016 23.3201C11.1769 23.0059 10.8628 22.7666 10.5003 22.6333C10.1484 22.478 9.7581 22.4317 9.37964 22.5003C9.00118 22.5689 8.65195 22.7493 8.37699 23.0183L8.30699 23.0883C8.09029 23.3052 7.83295 23.4773 7.54969 23.5948C7.26642 23.7122 6.96279 23.7726 6.65616 23.7726C6.34952 23.7726 6.04589 23.7122 5.76263 23.5948C5.47937 23.4773 5.22203 23.3052 5.00533 23.0883C4.78838 22.8716 4.61628 22.6142 4.49885 22.331C4.38143 22.0477 4.32099 21.7441 4.32099 21.4375C4.32099 21.1308 4.38143 20.8272 4.49885 20.5439C4.61628 20.2607 4.78838 20.0033 5.00533 19.7866L5.07533 19.7166C5.34428 19.4417 5.52471 19.0924 5.59333 18.714C5.66195 18.3355 5.61563 17.9452 5.46033 17.5933C5.31244 17.2482 5.06687 16.9539 4.75387 16.7467C4.44086 16.5394 4.07408 16.4281 3.69866 16.4266H3.50033C2.88149 16.4266 2.28799 16.1808 1.85041 15.7432C1.41282 15.3056 1.16699 14.7121 1.16699 14.0933C1.16699 13.4745 1.41282 12.881 1.85041 12.4434C2.28799 12.0058 2.88149 11.76 3.50033 11.76H3.60533C3.99149 11.7509 4.366 11.6259 4.68017 11.4012C4.99435 11.1765 5.23366 10.8625 5.36699 10.5C5.52229 10.1481 5.56862 9.75773 5.5 9.37927C5.43138 9.00081 5.25095 8.65158 4.98199 8.37663L4.91199 8.30663C4.69505 8.08992 4.52294 7.83258 4.40552 7.54932C4.2881 7.26606 4.22766 6.96243 4.22766 6.65579C4.22766 6.34916 4.2881 6.04553 4.40552 5.76227C4.52294 5.479 4.69505 5.22166 4.91199 5.00496C5.1287 4.78801 5.38604 4.61591 5.6693 4.49849C5.95256 4.38106 6.25619 4.32062 6.56283 4.32062C6.86946 4.32062 7.17309 4.38106 7.45635 4.49849C7.73961 4.61591 7.99695 4.78801 8.21366 5.00496L8.28366 5.07496C8.55862 5.34392 8.90784 5.52434 9.2863 5.59296C9.66477 5.66159 10.0551 5.61526 10.407 5.45996H10.5003C10.8454 5.31207 11.1397 5.06651 11.347 4.7535C11.5543 4.4405 11.6655 4.07371 11.667 3.69829V3.49996C11.667 2.88112 11.9128 2.28763 12.3504 1.85004C12.788 1.41246 13.3815 1.16663 14.0003 1.16663C14.6192 1.16663 15.2127 1.41246 15.6502 1.85004C16.0878 2.28763 16.3337 2.88112 16.3337 3.49996V3.60496C16.3352 3.98038 16.4464 4.34716 16.6537 4.66017C16.861 4.97317 17.1553 5.21874 17.5003 5.36663C17.8522 5.52193 18.2426 5.56825 18.621 5.49963C18.9995 5.43101 19.3487 5.25059 19.6237 4.98163L19.6937 4.91163C19.9104 4.69468 20.1677 4.52258 20.451 4.40515C20.7342 4.28773 21.0379 4.22729 21.3445 4.22729C21.6511 4.22729 21.9548 4.28773 22.238 4.40515C22.5213 4.52258 22.7786 4.69468 22.9953 4.91163C23.2123 5.12833 23.3844 5.38567 23.5018 5.66893C23.6192 5.95219 23.6797 6.25582 23.6797 6.56246C23.6797 6.8691 23.6192 7.17272 23.5018 7.45599C23.3844 7.73925 23.2123 7.99659 22.9953 8.21329L22.9253 8.28329C22.6564 8.55825 22.4759 8.90748 22.4073 9.28594C22.3387 9.6644 22.385 10.0547 22.5403 10.4066V10.5C22.6882 10.845 22.9338 11.1393 23.2468 11.3466C23.5598 11.5539 23.9266 11.6651 24.302 11.6666H24.5003C25.1192 11.6666 25.7127 11.9125 26.1502 12.35C26.5878 12.7876 26.8337 13.3811 26.8337 14C26.8337 14.6188 26.5878 15.2123 26.1502 15.6499C25.7127 16.0875 25.1192 16.3333 24.5003 16.3333H24.3953C24.0199 16.3348 23.6531 16.446 23.3401 16.6533C23.0271 16.8606 22.7815 17.1549 22.6337 17.5V17.5Z" stroke="white" stroke-width="2" stroke-linecap="round" stroke-linejoin="round"/>
</svg>
